<mxfile host="app.diagrams.net" modified="2020-11-14T09:31:22.573Z" agent="5.0 (Macintosh; Intel Mac OS X 10_15_4) AppleWebKit/605.1.15 (KHTML, like Gecko) Version/13.1 Safari/605.1.15" etag="iIhyEmhP-KMKGayZOc_h" version="13.9.7" type="github">
  <diagram id="GjN9jYAglNvQ_llXanhn" name="Page-1">
    <mxGraphModel dx="547" dy="588" grid="1" gridSize="10" guides="1" tooltips="1" connect="1" arrows="1" fold="1" page="1" pageScale="1" pageWidth="827" pageHeight="1169" math="0" shadow="0">
      <root>
        <mxCell id="0" />
        <mxCell id="1" parent="0" />
        <mxCell id="ok_ct9W2kKl_hV70Miaf-2" style="edgeStyle=orthogonalEdgeStyle;rounded=0;orthogonalLoop=1;jettySize=auto;html=1;exitX=0.5;exitY=1;exitDx=0;exitDy=0;" edge="1" parent="1" source="ok_ct9W2kKl_hV70Miaf-1">
          <mxGeometry relative="1" as="geometry">
            <mxPoint x="400" y="240" as="targetPoint" />
          </mxGeometry>
        </mxCell>
        <mxCell id="ok_ct9W2kKl_hV70Miaf-1" value="welcome To Python Pizza" style="whiteSpace=wrap;html=1;aspect=fixed;" vertex="1" parent="1">
          <mxGeometry x="360" y="70" width="80" height="80" as="geometry" />
        </mxCell>
        <mxCell id="ok_ct9W2kKl_hV70Miaf-4" style="edgeStyle=orthogonalEdgeStyle;rounded=0;orthogonalLoop=1;jettySize=auto;html=1;" edge="1" parent="1" source="ok_ct9W2kKl_hV70Miaf-3">
          <mxGeometry relative="1" as="geometry">
            <mxPoint x="400" y="440" as="targetPoint" />
          </mxGeometry>
        </mxCell>
        <mxCell id="ok_ct9W2kKl_hV70Miaf-3" value="what size pizza would you like?" style="shape=hexagon;perimeter=hexagonPerimeter2;whiteSpace=wrap;html=1;fixedSize=1;" vertex="1" parent="1">
          <mxGeometry x="340" y="260" width="120" height="80" as="geometry" />
        </mxCell>
        <mxCell id="ok_ct9W2kKl_hV70Miaf-5" value="Do you want pepperoni Y or N?" style="ellipse;whiteSpace=wrap;html=1;" vertex="1" parent="1">
          <mxGeometry x="340" y="450" width="120" height="80" as="geometry" />
        </mxCell>
        <mxCell id="ok_ct9W2kKl_hV70Miaf-9" style="edgeStyle=orthogonalEdgeStyle;rounded=0;orthogonalLoop=1;jettySize=auto;html=1;entryX=-0.008;entryY=0.388;entryDx=0;entryDy=0;entryPerimeter=0;" edge="1" parent="1" source="ok_ct9W2kKl_hV70Miaf-7" target="ok_ct9W2kKl_hV70Miaf-5">
          <mxGeometry relative="1" as="geometry" />
        </mxCell>
        <mxCell id="ok_ct9W2kKl_hV70Miaf-7" value="No" style="whiteSpace=wrap;html=1;aspect=fixed;" vertex="1" parent="1">
          <mxGeometry x="90" y="520" width="65" height="65" as="geometry" />
        </mxCell>
        <mxCell id="ok_ct9W2kKl_hV70Miaf-11" style="edgeStyle=orthogonalEdgeStyle;rounded=0;orthogonalLoop=1;jettySize=auto;html=1;entryX=1;entryY=0.5;entryDx=0;entryDy=0;" edge="1" parent="1" source="ok_ct9W2kKl_hV70Miaf-10" target="ok_ct9W2kKl_hV70Miaf-5">
          <mxGeometry relative="1" as="geometry" />
        </mxCell>
        <mxCell id="ok_ct9W2kKl_hV70Miaf-12" style="edgeStyle=orthogonalEdgeStyle;rounded=0;orthogonalLoop=1;jettySize=auto;html=1;exitX=0.5;exitY=1;exitDx=0;exitDy=0;" edge="1" parent="1" source="ok_ct9W2kKl_hV70Miaf-10">
          <mxGeometry relative="1" as="geometry">
            <mxPoint x="680" y="680" as="targetPoint" />
          </mxGeometry>
        </mxCell>
        <mxCell id="ok_ct9W2kKl_hV70Miaf-10" value="Yes" style="rounded=1;whiteSpace=wrap;html=1;" vertex="1" parent="1">
          <mxGeometry x="620" y="520" width="120" height="60" as="geometry" />
        </mxCell>
        <mxCell id="ok_ct9W2kKl_hV70Miaf-23" style="edgeStyle=orthogonalEdgeStyle;rounded=0;orthogonalLoop=1;jettySize=auto;html=1;exitX=1;exitY=0.5;exitDx=0;exitDy=0;entryX=-0.033;entryY=0.163;entryDx=0;entryDy=0;entryPerimeter=0;" edge="1" parent="1" source="ok_ct9W2kKl_hV70Miaf-13" target="ok_ct9W2kKl_hV70Miaf-24">
          <mxGeometry relative="1" as="geometry">
            <mxPoint x="860" y="730" as="targetPoint" />
          </mxGeometry>
        </mxCell>
        <mxCell id="ok_ct9W2kKl_hV70Miaf-13" value="Extra Cheese?" style="shape=hexagon;perimeter=hexagonPerimeter2;whiteSpace=wrap;html=1;fixedSize=1;" vertex="1" parent="1">
          <mxGeometry x="620" y="690" width="120" height="80" as="geometry" />
        </mxCell>
        <mxCell id="ok_ct9W2kKl_hV70Miaf-14" value="s: $2" style="text;html=1;align=center;verticalAlign=middle;resizable=0;points=[];autosize=1;" vertex="1" parent="1">
          <mxGeometry x="690" y="490" width="40" height="20" as="geometry" />
        </mxCell>
        <mxCell id="ok_ct9W2kKl_hV70Miaf-15" value="s $15" style="text;html=1;align=center;verticalAlign=middle;resizable=0;points=[];autosize=1;" vertex="1" parent="1">
          <mxGeometry x="340" y="240" width="40" height="20" as="geometry" />
        </mxCell>
        <mxCell id="ok_ct9W2kKl_hV70Miaf-16" value="m $20" style="text;html=1;align=center;verticalAlign=middle;resizable=0;points=[];autosize=1;" vertex="1" parent="1">
          <mxGeometry x="395" y="240" width="50" height="20" as="geometry" />
        </mxCell>
        <mxCell id="ok_ct9W2kKl_hV70Miaf-17" value="L $25" style="text;html=1;align=center;verticalAlign=middle;resizable=0;points=[];autosize=1;" vertex="1" parent="1">
          <mxGeometry x="335" y="340" width="50" height="20" as="geometry" />
        </mxCell>
        <mxCell id="ok_ct9W2kKl_hV70Miaf-18" value="L: $3" style="text;html=1;align=center;verticalAlign=middle;resizable=0;points=[];autosize=1;" vertex="1" parent="1">
          <mxGeometry x="600" y="580" width="40" height="20" as="geometry" />
        </mxCell>
        <mxCell id="ok_ct9W2kKl_hV70Miaf-19" value="M: $3" style="text;html=1;align=center;verticalAlign=middle;resizable=0;points=[];autosize=1;" vertex="1" parent="1">
          <mxGeometry x="695" y="580" width="50" height="20" as="geometry" />
        </mxCell>
        <mxCell id="ok_ct9W2kKl_hV70Miaf-22" style="edgeStyle=orthogonalEdgeStyle;rounded=0;orthogonalLoop=1;jettySize=auto;html=1;entryX=0;entryY=0.425;entryDx=0;entryDy=0;entryPerimeter=0;" edge="1" parent="1" source="ok_ct9W2kKl_hV70Miaf-21" target="ok_ct9W2kKl_hV70Miaf-13">
          <mxGeometry relative="1" as="geometry" />
        </mxCell>
        <mxCell id="ok_ct9W2kKl_hV70Miaf-21" value="No!" style="shape=dataStorage;whiteSpace=wrap;html=1;fixedSize=1;" vertex="1" parent="1">
          <mxGeometry x="335" y="720" width="100" height="80" as="geometry" />
        </mxCell>
        <mxCell id="ok_ct9W2kKl_hV70Miaf-24" value="Yes!" style="shape=callout;whiteSpace=wrap;html=1;perimeter=calloutPerimeter;" vertex="1" parent="1">
          <mxGeometry x="870" y="720" width="120" height="80" as="geometry" />
        </mxCell>
        <mxCell id="ok_ct9W2kKl_hV70Miaf-25" value="$1.00" style="text;html=1;align=center;verticalAlign=middle;resizable=0;points=[];autosize=1;" vertex="1" parent="1">
          <mxGeometry x="955" y="700" width="50" height="20" as="geometry" />
        </mxCell>
      </root>
    </mxGraphModel>
  </diagram>
</mxfile>
